HIERARCHY
ROOT Hips
{
  OFFSET 0.000000 0.000000 0.000000
  CHANNELS 6 Xposition Yposition Zposition Xrotation Yrotation Zrotation
  JOINT Spine
  {
    OFFSET 0.000000 5.000000 0.000000
    CHANNELS 3 Xrotation Yrotation Zrotation
    JOINT Chest
    {
      OFFSET 0.000000 5.000000 0.000000
      CHANNELS 3 Xrotation Yrotation Zrotation
      JOINT Neck
      {
        OFFSET 0.000000 5.000000 0.000000
        CHANNELS 3 Xrotation Yrotation Zrotation
        JOINT Head
        {
          OFFSET 0.000000 5.000000 0.000000
          CHANNELS 3 Xrotation Yrotation Zrotation
          End Site
          {
            OFFSET 0.0 5.0 2.0
          }
        }
      }
      JOINT LeftShoulder
      {
        OFFSET -5.000000 0.000000 0.000000
        CHANNELS 3 Xrotation Yrotation Zrotation
        JOINT LeftArm
        {
          OFFSET -5.000000 0.000000 0.000000
          CHANNELS 3 Xrotation Yrotation Zrotation
          JOINT LeftForeArm
          {
            OFFSET -5.000000 0.000000 0.000000
            CHANNELS 3 Xrotation Yrotation Zrotation
            JOINT LeftHand
            {
              OFFSET -8.000000 0.000000 3.000000
              CHANNELS 3 Xrotation Yrotation Zrotation
              End Site
              {
                OFFSET -3.0 0.0 2.0
              }
            }
          }
        }
      }
      JOINT RightShoulder
      {
        OFFSET 5.000000 0.000000 0.000000
        CHANNELS 3 Xrotation Yrotation Zrotation
        JOINT RightArm
        {
          OFFSET 5.000000 0.000000 0.000000
          CHANNELS 3 Xrotation Yrotation Zrotation
          JOINT RightForeArm
          {
            OFFSET 5.000000 0.000000 0.000000
            CHANNELS 3 Xrotation Yrotation Zrotation
            JOINT RightHand
            {
              OFFSET 8.000000 0.000000 3.000000
              CHANNELS 3 Xrotation Yrotation Zrotation
              End Site
              {
                OFFSET 3.0 0.0 2.0
              }
            }
          }
        }
      }
    }
  }
  JOINT LeftUpLeg
  {
    OFFSET -3.535534 -3.535534 0.000000
    CHANNELS 3 Xrotation Yrotation Zrotation
    JOINT LeftLeg
    {
      OFFSET 0.000000 -5.000000 0.000000
      CHANNELS 3 Xrotation Yrotation Zrotation
      JOINT LeftFoot
      {
        OFFSET 0.000000 -8.000000 5.000000
        CHANNELS 3 Xrotation Yrotation Zrotation
        JOINT LeftToeBase
        {
          OFFSET 0.000000 -1.000000 8.000000
          CHANNELS 3 Xrotation Yrotation Zrotation
          End Site
          {
            OFFSET 0.0 -1.0 3.0
          }
        }
      }
    }
  }
  JOINT RightUpLeg
  {
    OFFSET 3.535534 -3.535534 0.000000
    CHANNELS 3 Xrotation Yrotation Zrotation
    JOINT RightLeg
    {
      OFFSET 0.000000 -5.000000 0.000000
      CHANNELS 3 Xrotation Yrotation Zrotation
      JOINT RightFoot
      {
        OFFSET 0.000000 -8.000000 5.000000
        CHANNELS 3 Xrotation Yrotation Zrotation
        JOINT RightToeBase
        {
          OFFSET 0.000000 -1.000000 8.000000
          CHANNELS 3 Xrotation Yrotation Zrotation
          End Site
          {
            OFFSET 0.0 -1.0 3.0
          }
        }
      }
    }
  }
}
MOTION
Frames: 8
Frame Time: 0.033333
0.762558 0.840334 130.000000 5.605393 -15.253039 -130.166061 -165.992496 -61.436363 -8.349955 98.945181 -8.008657 -173.150333 -80.623413 3.000820 3.536665 0.000000 0.000000 0.000000 25.572627 -5.231780 -157.235004 115.186479 -29.198916 -161.223008 76.680271 -45.537021 -172.322649 0.000000 0.000000 0.000000 -118.230199 -29.036277 162.390965 -6.947917 -2.348664 142.683278 -23.376079 29.087771 116.498642 0.000000 0.000000 0.000000 -167.615551 -12.626467 -1.375445 -120.622839 11.416307 -0.463411 -54.334781 24.132349 -8.918124 0.000000 0.000000 0.000000 -163.518816 -33.027297 -4.917173 -124.032452 -1.050007 0.073824 -53.380232 -30.000000 14.575721 0.000000 0.000000 0.000000
0.875881 1.017323 131.000000 5.627417 -15.333430 -130.114651 -165.765951 -62.178137 -8.610996 99.022300 -8.187025 -173.007151 -80.300413 3.084626 3.656246 0.000000 0.000000 0.000000 23.819111 -4.952767 -156.823496 115.218322 -28.757583 -161.525192 79.217927 -45.059130 -173.477588 0.000000 0.000000 0.000000 -118.506882 -29.477734 162.211951 -9.283281 -3.114303 142.976582 -24.845803 28.174836 116.266336 0.000000 0.000000 0.000000 -167.524293 -12.932453 -1.419519 -120.396258 11.429049 -0.441223 -54.300883 24.151387 -8.917176 0.000000 0.000000 0.000000 -163.446116 -32.359910 -4.833892 -123.670490 -1.004438 0.067432 -52.992283 -30.000000 14.388428 0.000000 0.000000 0.000000
0.954285 1.184147 132.000000 5.620691 -15.341295 -130.051310 -165.512755 -63.168537 -8.936729 99.970425 -8.404135 -172.940663 -79.323346 3.785512 4.565127 0.000000 0.000000 0.000000 22.819047 -4.857532 -156.261072 115.300609 -28.636504 -161.633621 79.481954 -44.582085 -174.313078 0.000000 0.000000 0.000000 -117.563675 -29.146600 162.091735 -8.319178 -2.769886 143.223140 -23.095305 29.346280 116.889945 0.000000 0.000000 0.000000 -167.505230 -13.133652 -1.444015 -120.401278 11.341951 -0.438338 -54.209938 24.313439 -8.956534 0.000000 0.000000 0.000000 -163.500973 -32.131942 -4.781917 -123.657660 -1.029632 0.069008 -52.767065 -30.000000 14.288248 0.000000 0.000000 0.000000
0.994645 1.339140 133.000000 5.588263 -15.271932 -130.006741 -165.318011 -63.854900 -9.179203 99.990755 -8.452716 -172.902363 -78.714045 4.132153 5.037203 0.000000 0.000000 0.000000 22.855862 -4.897264 -156.110688 114.508377 -28.240089 -161.620692 79.318854 -44.375144 -174.645087 0.000000 0.000000 0.000000 -116.885736 -28.972009 161.967415 -7.513630 -2.484812 143.444779 -22.184819 29.952938 117.283475 0.000000 0.000000 0.000000 -167.455973 -13.225921 -1.460027 -120.404856 11.187305 -0.432674 -54.098776 24.570088 -9.026394 0.000000 0.000000 0.000000 -163.542180 -32.207256 -4.781599 -123.608432 -1.038189 0.069133 -52.508627 -30.000000 14.118842 0.000000 0.000000 0.000000
0.995351 1.480752 134.000000 5.582496 -15.282679 -129.942472 -165.192450 -64.337762 -9.345000 101.344821 -8.635833 -172.920302 -78.480033 4.507209 5.517092 0.000000 0.000000 0.000000 30.188335 -6.528109 -156.121467 117.890616 -30.843379 -161.137659 85.345857 -44.341633 -175.234584 0.000000 0.000000 0.000000 -115.966809 -28.795689 161.761626 -7.574942 -2.434884 144.404740 -22.229190 30.544643 119.931933 0.000000 0.000000 0.000000 -167.462431 -13.528172 -1.492922 -120.393595 11.188550 -0.431618 -54.016331 24.771134 -9.081927 0.000000 0.000000 0.000000 -163.538017 -32.271225 -4.792833 -123.566782 -1.021554 0.067652 -52.356418 -30.000000 14.060339 0.000000 0.000000 0.000000
0.956376 1.607569 135.000000 5.523900 -15.172258 -129.823770 -165.295397 -63.951136 -9.210573 101.859906 -8.533344 -173.068177 -78.400963 4.589938 5.626210 0.000000 0.000000 0.000000 35.665858 -7.810146 -156.039915 118.450583 -32.389603 -160.374808 86.724960 -44.630641 -174.920579 0.000000 0.000000 0.000000 -105.102069 -24.512993 161.106549 17.870401 5.491927 146.070509 -3.347812 39.909335 129.428016 0.000000 0.000000 0.000000 -167.379424 -15.057147 -1.674591 -120.369137 11.307277 -0.433803 -53.928494 25.102637 -9.184916 0.000000 0.000000 0.000000 -163.468973 -32.522605 -4.852721 -123.432002 -0.942542 0.061306 -52.185863 -30.000000 13.937931 0.000000 0.000000 0.000000
0.879273 1.718324 136.000000 5.480201 -15.079320 -129.760030 -165.294485 -64.030653 -9.225322 102.427322 -8.451221 -173.203999 -78.357095 4.611650 5.657223 0.000000 0.000000 0.000000 34.998854 -7.694156 -155.920458 116.569743 -31.499248 -160.227209 84.077427 -44.895139 -174.268461 0.000000 0.000000 0.000000 -103.646242 -24.312260 160.774377 17.680368 5.061429 148.271446 -5.402436 39.351715 133.804964 0.000000 0.000000 0.000000 -167.318932 -16.481011 -1.843896 -120.329895 11.414267 -0.434007 -53.868975 25.387284 -9.277017 0.000000 0.000000 0.000000 -163.455005 -32.805414 -4.901442 -123.370408 -0.885182 0.057097 -52.189314 -30.000000 13.873071 0.000000 0.000000 0.000000
0.767116 1.811909 137.000000 5.426531 -14.963575 -129.684518 -165.657543 -62.656785 -8.758865 103.595373 -8.325002 -173.443937 -78.412969 4.565451 5.595015 0.000000 0.000000 0.000000 41.875683 -9.435763 -155.656131 118.761659 -33.666303 -159.695984 88.744024 -44.944393 -174.646278 0.000000 0.000000 0.000000 -93.312803 -20.946555 160.206901 37.194438 10.169075 150.376788 13.195559 44.190412 144.953925 0.000000 0.000000 0.000000 -167.222845 -18.188619 -2.053566 -120.329669 11.696564 -0.444792 -53.743918 25.468644 -9.275907 0.000000 0.000000 0.000000 -163.377694 -33.148076 -4.978982 -123.335688 -0.778040 0.049949 -52.148799 -30.000000 13.725597 0.000000 0.000000 0.000000
